# AST/ASF file generated using VICON BodyLanguage
# -----------------------------------------------
:version 1.10
:name VICON
:units
  mass 1.0
  length 0.45
  angle deg
:documentation
   .ast/.asf automatically generated from VICON data using
   VICON BodyBuilder and BodyLanguage model FoxedUp or BRILLIANT.MOD
:root
   order TX TY TZ RX RY RZ
   axis XYZ
   position 0 0 0  
   orientation 0 -0 0 
:bonedata
  begin
     id 1 
     name lhipjoint
     direction 0.500677 -0.737119 0.453848 
     length 2.34727 
     axis 0 -0 0  XYZ
  end
  begin
     id 2 
     name lfemur
     direction 0.34202 -0.939693 0  
     length 7.53653  
     axis 0 -0 20  XYZ
    dof rx ry rz
    limits (-160.0 20.0)
           (-70.0 70.0)
           (-60.0 70.0)
  end
  begin
     id 3 
     name ltibia
     direction 0.34202 -0.939693 0   
     length 6.85572   
     axis 0 -0 20   XYZ
    dof rx
    limits (-10.0 170.0)
  end
  begin
     id 4 
     name lfoot
     direction 0.155313 -0.426718 0.890949   
     length 2.18324   
     axis -90 -1.13533e-015 20   XYZ
    dof rx rz
    limits (-45.0 90.0)
           (-70.0 20.0)
  end
  begin
     id 5 
     name ltoes
     direction 1.53474e-011 -4.21647e-011 1   
     length 1.06748   
     axis -90 -1.13533e-015 20   XYZ
    dof rx
    limits (-90.0 20.0)
  end
  begin
     id 6 
     name rhipjoint
     direction -0.632471 -0.659587 0.406111   
     length 2.62319  
     axis 0 -0 0  XYZ 
  end
  begin
     id 7 
     name rfemur
     direction -0.34202 -0.939693 0   
     length 7.21735   
     axis 0 -0 -20   XYZ
    dof rx ry rz
    limits (-160.0 20.0)
           (-70.0 70.0)
           (-70.0 60.0)
  end
  begin
     id 8 
     name rtibia
     direction -0.34202 -0.939693 0   
     length 7.02558   
     axis 0 -0 -20   XYZ
    dof rx
    limits (-10.0 170.0)
 end
 begin
     id 9 
     name rfoot
     direction -0.16057 -0.441164 0.882945   
     length 2.10014  
     axis -90 1.13533e-015 -20   XYZ
    dof rx rz
    limits (-45.0 90.0)
           (-20.0 70.0)
  end
  begin
     id 10 
     name rtoes
     direction -1.53553e-011 -4.2192e-011 1   
     length 1.02554   
     axis -90 1.13533e-015 -20   XYZ
    dof rx
    limits (-90.0 20.0)
  end
  begin
     id 11 
     name lowerback
     direction 0.0401429 0.998861 -0.0258085   
     length 1.80848   
     axis 0 -0 0   XYZ
    dof rx ry rz
    limits (-20.0 45.0)
           (-30.0 30.0)
           (-30.0 30.0)
  end
  begin
     id 12 
     name upperback
     direction -0.0130978 0.999914 -0.000352645   
     length 1.8116   
     axis 0 -0 0   XYZ
    dof rx ry rz
    limits (-20.0 45.0)
           (-30.0 30.0)
           (-30.0 30.0)
  end
  begin
     id 13 
     name thorax
     direction -0.0300198 0.999453 0.0138573   
     length 1.81778   
     axis 0 -0 0   XYZ
    dof rx ry rz
    limits (-20.0 45.0)
           (-30.0 30.0)
           (-30.0 30.0)
  end
  begin
     id 14 
     name lowerneck
     direction -0.0401726 0.999191 -0.00173647   
     length 2.10594   
     axis 0 -0 0   XYZ
    dof rx ry rz
    limits (-20.0 45.0)
           (-30.0 30.0)
           (-30.0 30.0)
  end
  begin
     id 15 
     name upperneck
     direction 0.0119835 0.998501 0.0534085   
     length 2.07325   
     axis 0 -0 0   XYZ
    dof rx ry rz
    limits (-20.0 45.0)
           (-30.0 30.0)
           (-30.0 30.0)
  end
  begin
     id 16
     name head
     direction 0.00628309 0.999826 0.0175921  
     length 2.15096  
     axis 0 -0 0   XYZ
    dof rx ry rz
    limits (-20.0 45.0)
           (-30.0 30.0)
           (-30.0 30.0)
  end
  begin
     id 17 
     name lclavicle
     direction 0.895501 0.429681 -0.115981  
     length 4.18092  
     axis 0 -0 0   XYZ
    dof ry rz
    limits (-20.0 10.0)
           (0.0 20.0)
  end
  begin
     id 18 
     name lhumerus
     direction 1 -4.48961e-011 -3.38433e-028   
     length 5.77237   
     axis 180 -30 -90   XYZ
    dof rx ry rz
    limits (-60.0 90.0)
           (-90.0 90.0)
           (-90.0 90.0)
  end
  begin
     id 19
     name lradius
     direction 1 -4.4901e-011 1.11983e-026   
     length 2.91878   
     axis 180 -30 -90   XYZ
    dof rx
    limits (-10.0 170.0)
  end
  begin
     id 20
     name lwrist
     direction 1 -4.48934e-011 1.88176e-026   
     length 1.45939   
     axis -1.23311e-014 90 90   XYZ
    dof ry
    limits (-180.0 0.0)
 end
  begin
     id 21 
     name lhand
     direction 1 -4.4895e-011 3.76352e-026   
     length 1.06566   
     axis -2.40147e-014 90 90   XYZ
    dof rx rz
    limits (-90.0 90.0)
           (-45.0 45.0)
  end
  begin
     id 22 
     name lfingers
     direction 1 -4.49005e-011 7.52705e-026   
     length 0.859162   
     axis -4.80295e-014 90 90   XYZ
    dof rx
    limits (0.0 90.0)
  end
  begin
     id 23
     name lthumb
     direction 0.707107 -6.34885e-011 0.707107   
     length 1.23359   
     axis -90 45 -9.86935e-015   XYZ
    dof rx rz
    limits (-45.0 45.0)
           (-45.0 45.0)
  end
  begin
     id 24 
     name rclavicle
     direction -0.91006 0.40451 -0.0903492   
     length 4.23293  
     axis 0 -0 0   XYZ 
    dof ry rz
    limits (-10.0 20.0)
           (-20.0 0.0)
  end
  begin
     id 25 
     name rhumerus
     direction -1 -4.4897e-011 1.7415e-027  
     length 5.49854   
     axis 180 30 90   XYZ
    dof rx ry rz
    limits (-90.0 60.0)
           (-90.0 90.0)
           (-90.0 90.0)
  end
  begin
     id 26 
     name rradius
     direction -1 -4.48963e-011 1.21259e-026   
     length 3.1186   
     axis 180 30 90   XYZ
    dof rx
    limits (-10.0 170.0)
  end
  begin
     id 27 
     name rwrist
     direction -1 -4.48967e-011 1.88176e-026   
     length 1.5593   
     axis -1.23311e-014 -90 -90   XYZ
    dof ry
    limits (-180.0 0.0)
  end
  begin
     id 28
     name rhand
     direction -1 -4.4895e-011 3.76352e-026   
     length 0.71207   
     axis -2.40147e-014 -90 -90   XYZ
    dof rx rz
    limits (-90.0 90.0)
           (-45.0 45.0)
  end
  begin
     id 29
     name rfingers
     direction -1 -4.49005e-011 7.52705e-026   
     length 0.574089   
     axis -4.80295e-014 -90 -90   XYZ
    dof rx
    limits (0.0 90.0)
  end
  begin
     id 30
     name rthumb
     direction -0.707107 -6.34982e-011 0.707107   
     length 0.824281   
     axis -90 -45 9.86935e-015   XYZ
    dof rx rz
    limits (-45.0 45.0)
           (-45.0 45.0)
  end
:hierarchy
  begin
    root lhipjoint rhipjoint lowerback
    lhipjoint lfemur
    lfemur ltibia
    ltibia lfoot
    lfoot ltoes
    rhipjoint rfemur
    rfemur rtibia
    rtibia rfoot
    rfoot rtoes
    lowerback upperback
    upperback thorax
    thorax lowerneck lclavicle rclavicle
    lowerneck upperneck
    upperneck head
    lclavicle lhumerus
    lhumerus lradius
    lradius lwrist
    lwrist lhand lthumb
    lhand lfingers
    rclavicle rhumerus
    rhumerus rradius
    rradius rwrist
    rwrist rhand rthumb
    rhand rfingers
  end

#!OML:ASF C:\ViconDB\ViconDB\414\Spring2016\042216\male.ASF
:FULLY-SPECIFIED
:DEGREES
504
root 44.528 17.7916 12.5133 -59.9712 88.1483 -54.8591
lowerback -2.94108 -1.61779 5.55348
upperback -0.646693 -2.31227 -0.172901
thorax 0.755453 -1.14376 -3.36769
lowerneck -2.19962 9.88326 -1.27658
upperneck 3.66642 13.4567 -3.55845
head 1.68195 6.65374 -0.597546
rclavicle 1.33931e-014 -1.43125e-014
rhumerus -45.8037 -21.1809 -69.7669
rradius 19.5745
rwrist 45.865
rhand 14.2807 -21.942
rfingers 7.12502
rthumb 39.1741 -47.4119
lclavicle 1.33931e-014 -1.43125e-014
lhumerus -33.2102 -4.99151 97.3351
lradius 68.0402
lwrist 11.6704
lhand -9.78108 10.3763
lfingers 7.12502
lthumb 16.1945 39.7198
rfemur -10.3344 5.69222 23.3034
rtibia 27.852
rfoot -6.50425 -2.74034
rtoes -7.01423
lfemur -8.45748 -4.63489 -20.6447
ltibia 37.5289
lfoot -12.2688 15.3187
ltoes -28.1003
505
root 44.6215 17.7933 12.538 -58.1284 88.4463 -53.0905
lowerback -2.88966 -1.61185 5.22491
upperback -0.712565 -2.28947 -0.188586
thorax 0.673501 -1.13643 -3.19609
lowerneck -2.13681 9.89899 -1.37406
upperneck 3.62236 13.4831 -3.63073
head 1.65596 6.66692 -0.608823
rclavicle 1.26477e-014 7.15625e-015
rhumerus -45.904 -20.8418 -69.7148
rradius 19.4725
rwrist 47.1973
rhand 15.0841 -21.9414
rfingers 7.12502
rthumb 39.9308 -47.1883
lclavicle 1.26477e-014 7.15625e-015
lhumerus -33.5252 -5.02555 97.5306
lradius 67.1627
lwrist 10.9658
lhand -9.29649 10.4373
lfingers 7.12502
lthumb 16.661 39.7423
rfemur -9.96308 5.99868 23.1355
rtibia 27.7487
rfoot -7.04112 -3.10351
rtoes -7.01362
lfemur -8.1726 -4.64056 -20.8883
ltibia 37.502
lfoot -12.4484 15.3332
ltoes -28.2782
506
root 44.7125 17.7862 12.5598 -55.3134 88.724 -50.3335
lowerback -2.78654 -1.55949 5.04287
upperback -0.801181 -2.20557 -0.272572
thorax 0.536 -1.10016 -3.17326
lowerneck -2.07689 9.88698 -1.43443
upperneck 3.62809 13.4669 -3.59778
head 1.64035 6.65973 -0.593646
rclavicle 3.3048e-014 0
rhumerus -45.7646 -19.3205 -70.8031
rradius 19.6204
rwrist 46.8487
rhand 15.7304 -22.0357
rfingers 7.12502
rthumb 40.5387 -47.097
lclavicle 3.3048e-014 0
lhumerus -33.9513 -5.21407 97.7388
lradius 66.1947
lwrist 10.6279
lhand -9.18351 10.6814
lfingers 7.12502
lthumb 16.7698 39.9772
rfemur -9.67474 6.08987 22.9673
rtibia 27.8122
rfoot -7.64505 -3.30665
rtoes -6.79436
lfemur -7.84 -4.44603 -21.0787
ltibia 37.4333
lfoot -12.4971 15.081
ltoes -28.6106
507
root 44.7991 17.7864 12.5855 -47.31 88.9352 -42.3569
lowerback -2.63113 -1.48567 4.86639
upperback -0.866482 -2.09203 -0.396366
thorax 0.394004 -1.04871 -3.19298
lowerneck -2.04818 9.90254 -1.38327
upperneck 3.62807 13.4829 -3.56111
head 1.6364 6.66914 -0.591576
rclavicle -1.63252e-014 9.74045e-015
rhumerus -45.6563 -18.3169 -71.7224
rradius 19.8957
rwrist 46.7115
rhand 16.0037 -21.8594
rfingers 7.12502
rthumb 40.7956 -46.8404
lclavicle -1.63252e-014 9.74045e-015
lhumerus -34.2815 -5.24218 97.7801
lradius 64.9147
lwrist 9.9506
lhand -9.09582 10.3553
lfingers 7.12502
lthumb 16.8542 39.6438
rfemur -9.35667 6.40571 22.8559
rtibia 27.8925
rfoot -8.29094 -3.71499
rtoes -6.47872
lfemur -7.5264 -4.10418 -21.2259
ltibia 37.3693
lfoot -13.1083 14.887
ltoes -28.246
508
root 44.8811 17.7791 12.6104 -35.5662 88.9814 -30.6031
lowerback -2.45258 -1.4099 4.73589
upperback -0.906991 -1.97753 -0.49677
thorax 0.263728 -0.995806 -3.21464
lowerneck -1.9514 9.93228 -1.15792
upperneck 3.57245 13.5193 -3.73061
head 1.63217 6.68945 -0.681609
rclavicle -1.94312e-014 -1.07344e-014
rhumerus -45.4098 -16.9576 -72.9479
rradius 20.2923
rwrist 46.3244
rhand 16.4614 -21.432
rfingers 7.12502
rthumb 41.2254 -46.2763
lclavicle -1.94312e-014 -1.07344e-014
lhumerus -34.6621 -5.1822 97.7852
lradius 63.7282
lwrist 9.72046
lhand -9.25521 10.5122
lfingers 7.12502
lthumb 16.7008 39.8138
rfemur -9.01609 6.52702 22.8168
rtibia 27.9254
rfoot -8.79586 -3.86183
rtoes -6.3415
lfemur -7.18397 -3.47945 -21.256
ltibia 37.3645
lfoot -13.0115 14.4042
ltoes -28.7411
509
root 44.9612 17.7743 12.6331 -27.4069 89.0186 -22.6276
lowerback -2.46668 -1.3806 4.58244
upperback -0.993588 -1.93295 -0.496433
thorax 0.191841 -0.976182 -3.12619
lowerneck -2.08479 10.0584 -0.742733
upperneck 3.69856 13.7003 -4.02403
head 1.7533 6.77535 -0.814898
rclavicle -1.58779e-014 -5.96354e-015
rhumerus -45.0535 -15.4251 -74.3076
rradius 20.7524
rwrist 45.2091
rhand 16.8152 -20.9923
rfingers 7.12502
rthumb 41.5575 -45.7289
lclavicle -1.58779e-014 -5.96354e-015
lhumerus -35.0101 -4.91282 97.7734
lradius 62.3368
lwrist 8.9193
lhand -9.12707 10.3826
lfingers 7.12502
lthumb 16.8241 39.6737
rfemur -8.86448 6.66454 22.7798
rtibia 27.8914
rfoot -9.27445 -3.98409
rtoes -5.94085
lfemur -7.07058 -3.01907 -21.2415
ltibia 37.4078
lfoot -14.3987 14.3436
ltoes -26.9123
510
root 45.0417 17.7681 12.6538 -26.3514 88.912 -21.7436
lowerback -2.4665 -1.32234 4.64841
upperback -1.08131 -1.85383 -0.470331
thorax 0.107096 -0.939937 -3.13325
lowerneck -2.10614 10.1164 -0.608711
upperneck 3.77589 13.7855 -4.14256
head 1.8036 6.81591 -0.864464
rclavicle 7.70291e-015 2.5842e-015
rhumerus -44.7222 -14.0398 -75.5463
rradius 21.3105
rwrist 44.0229
rhand 16.7142 -20.7913
rfingers 7.12502
rthumb 41.4627 -45.5588
lclavicle 7.70291e-015 2.5842e-015
lhumerus -35.3562 -4.57441 97.7721
lradius 60.7646
lwrist 8.37121
lhand -9.49802 10.3
lfingers 7.12502
lthumb 16.467 39.6212
rfemur -8.66798 6.63385 22.9056
rtibia 27.8002
rfoot -9.72487 -3.84205
rtoes -5.69482
lfemur -7.01627 -2.60464 -21.058
ltibia 37.4941
lfoot -15.3929 14.3089
ltoes -25.8278
511
root 45.1248 17.752 12.6701 -24.1938 88.7169 -19.704
lowerback -2.54705 -1.20871 4.83062
upperback -1.10487 -1.70963 -0.51124
thorax 0.133786 -0.868209 -3.2767
lowerneck -2.14286 10.137 -0.519019
upperneck 3.81757 13.8113 -4.12815
head 1.82961 6.82852 -0.869477
rclavicle -2.23633e-015 -7.55382e-015
rhumerus -44.2926 -12.4224 -77.1322
rradius 21.8899
rwrist 41.8354
rhand 16.4925 -20.7348
rfingers 7.12502
rthumb 41.2547 -45.5697
lclavicle -2.23633e-015 -7.55382e-015
lhumerus -35.6479 -4.00368 97.5699
lradius 59.0878
lwrist 7.34284
lhand -9.30304 10.159
lfingers 7.12502
lthumb 16.6547 39.4645
rfemur -8.444 6.35214 22.9882
rtibia 27.7543
rfoot -10.1798 -3.27288
rtoes -5.42747
lfemur -6.86473 -2.14739 -20.8768
ltibia 37.5773
lfoot -16.2756 14.2267
ltoes -24.9366
512
root 45.2059 17.7438 12.6842 -22.0237 88.5594 -17.6905
lowerback -2.63863 -1.11055 5.01106
upperback -1.16429 -1.58553 -0.564772
thorax 0.12852 -0.807931 -3.43216
lowerneck -2.13645 10.172 -0.385913
upperneck 3.88509 13.8569 -4.13057
head 1.86176 6.85151 -0.887097
rclavicle 2.34317e-014 -1.15295e-014
rhumerus -43.9425 -10.8597 -78.6414
rradius 22.5909
rwrist 39.872
rhand 16.5429 -20.5067
rfingers 7.12502
rthumb 41.302 -45.3264
lclavicle 2.34317e-014 -1.15295e-014
lhumerus -36.0006 -3.28921 97.2552
lradius 57.3788
lwrist 5.87532
lhand -8.72641 10.0159
lfingers 7.12502
lthumb 17.2098 39.2738
rfemur -8.23595 6.60053 23.0564
rtibia 27.6823
rfoot -10.7218 -3.21133
rtoes -4.96754
lfemur -6.73508 -1.80774 -20.7511
ltibia 37.6093
lfoot -16.7492 14.1397
ltoes -24.3545
513
root 45.288 17.7317 12.7047 -9.11141 88.4537 -4.95417
lowerback -2.8137 -1.0216 4.70715
upperback -1.22665 -1.46627 -0.631217
thorax 0.180263 -0.746979 -3.33043
lowerneck -2.06991 10.2067 -0.347578
upperneck 3.87056 13.902 -4.15662
head 1.85157 6.87547 -0.903575
rclavicle 1.11816e-015 4.77083e-015
rhumerus -43.6334 -9.49968 -79.8794
rradius 23.3932
rwrist 38.2489
rhand 16.5282 -20.3962
rfingers 7.12502
rthumb 41.2881 -45.2203
lclavicle 1.11816e-015 4.77083e-015
lhumerus -36.3687 -2.5301 96.9445
lradius 55.6074
lwrist 4.38636
lhand -8.19064 10.7323
lfingers 7.12502
lthumb 17.7254 39.9444
rfemur -8.08243 7.22419 22.838
rtibia 27.6307
rfoot -11.2156 -3.448
rtoes -4.73887
lfemur -6.57213 -1.56401 -20.9577
ltibia 37.5991
lfoot -17.2458 14.2173
ltoes -23.7515
